Coordinates
version=1
nRows=7
nColumns=40
inDegrees=yes

Units are S.I. units (second, meters, Newtons, ...)
Angles are in degrees.

endheader
time	pelvis_tilt	pelvis_list	pelvis_rotation	pelvis_tx	pelvis_ty	pelvis_tz	hip_flexion_r	hip_adduction_r	hip_rotation_r	knee_angle_r	knee_angle_r_beta	ankle_angle_r	subtalar_angle_r	mtp_angle_r	hip_flexion_l	hip_adduction_l	hip_rotation_l	knee_angle_l	knee_angle_l_beta	ankle_angle_l	subtalar_angle_l	mtp_angle_l	lumbar_extension	lumbar_bending	lumbar_rotation	arm_flex_r	arm_add_r	arm_rot_r	elbow_flex_r	pro_sup_r	wrist_flex_r	wrist_dev_r	arm_flex_l	arm_add_l	arm_rot_l	elbow_flex_l	pro_sup_l	wrist_flex_l	wrist_dev_l
     44.10228571	     -4.17553581	     -5.02506431	      6.17302492	      0.98000207	      0.92066048	      0.45450363	     -1.68207193	      4.11604876	    -16.71069660	     11.03958478	     11.03958478	     17.91176374	      2.88272320	     -1.26082533	     31.25999719	     -4.77084795	      0.43146378	     23.66146395	     23.66146395	      4.82445302	    -11.01898856	      7.75214469	     -6.62645839	      4.94038996	      4.49762777	     45.15109009	    -15.45661127	     -5.37870691	    104.10565781	     44.20991293	      0.00000000	      0.00000000	    -10.20982820	     -7.43004219	     11.67543768	     25.00923254	     43.99334451	      0.00000000	      0.00000000
     44.11457143	     -4.14143282	     -4.98765703	      5.99034936	      0.98074611	      0.91955938	      0.45277491	     -2.12976987	      3.93162028	    -16.45940811	     11.39290487	     11.39290487	     18.31835287	      2.83578197	     -1.32095847	     30.53453422	     -4.74240906	      0.52524803	     24.28721067	     24.28721067	      4.92984018	    -11.29804556	      7.57760614	     -6.41703939	      4.86682588	      4.49218449	     44.78251988	    -15.28370014	     -5.22544788	    104.20785060	     44.20360441	      0.00000000	      0.00000000	    -10.13352484	     -7.49246792	     11.65502487	     25.09720934	     44.00221214	      0.00000000	      0.00000000
     44.12685714	     -4.19777745	     -4.88864047	      5.85515185	      0.98116452	      0.91851446	      0.45080008	     -2.18230902	      3.58168916	    -16.15228308	     12.30286671	     12.30286671	     18.86560989	      2.44729463	     -1.20159389	     29.99212248	     -4.57135447	      0.65361503	     24.81192830	     24.81192830	      4.99412222	    -11.72380597	      7.18011096	     -6.21404389	      4.74037672	      4.41859615	     44.23249851	    -15.23550606	     -4.93618975	    104.67248502	     44.18938757	      0.00000000	      0.00000000	     -9.99966143	     -7.59078774	     11.56463567	     25.35200801	     44.03482758	      0.00000000	      0.00000000
     44.13914286	     -4.19215058	     -4.77607607	      5.77068777	      0.98152445	      0.91792383	      0.44869268	     -2.28896545	      3.23435133	    -15.81794992	     13.23249441	     13.23249441	     19.59067575	      1.99385268	     -0.08735347	     29.37142496	     -4.34100909	      0.81771485	     25.07111102	     25.07111102	      4.73628105	    -12.41902443	      5.84566637	     -6.10252374	      4.56563437	      4.55453439	     43.16827467	    -15.54629901	     -4.81107210	    105.41326736	     44.22411105	      0.00000000	      0.00000000	     -9.56217354	     -7.66526050	     11.18110124	     25.63017174	     44.19808784	      0.00000000	      0.00000000
     44.15142857	     -4.08227030	     -4.65477220	      5.78757428	      0.98175930	      0.91777994	      0.44631083	     -2.52635116	      2.86933267	    -15.69415759	     14.06184280	     14.06184280	     19.76151554	      1.66513082	     -0.24264814	     28.83386742	     -4.09292382	      0.90030850	     25.52841358	     25.52841358	      5.17306465	    -12.70467688	      5.55053307	     -6.12451240	      4.40865847	      4.27910998	     42.21278055	    -15.37445169	     -4.65483323	    105.22526395	     44.22656617	      0.00000000	      0.00000000	     -9.08785995	     -7.78384907	     11.13862214	     25.69555524	     44.22120641	      0.00000000	      0.00000000
     44.16371429	     -4.14194650	     -4.42709902	      5.82299901	      0.98157198	      0.91768207	      0.44363795	     -2.19342564	      2.25242210	    -15.46938074	     15.61648963	     15.61648963	     19.94362358	      0.92723719	     -0.59697312	     28.51388939	     -3.66574649	      1.02406070	     25.87788818	     25.87788818	      5.48762052	    -13.08335283	      5.24640121	     -5.98600341	      4.18333163	      4.09511637	     41.09136746	    -15.40357842	     -4.55945750	    104.99682285	     44.23785192	      0.00000000	      0.00000000	     -8.38181880	     -7.84736750	     11.04675337	     25.68251721	     44.26642127	      0.00000000	      0.00000000
     44.17600000	     -3.90817214	     -4.40031191	      6.01452159	      0.98149276	      0.91837334	      0.44075479	     -2.46610321	      1.96709324	    -15.50339199	     16.54131167	     16.54131167	     19.81541040	      0.55755912	     -0.74464635	     27.95267409	     -3.42680810	      1.27586674	     26.22324228	     26.22324228	      6.00550737	    -13.26986860	      4.97699050	     -6.20309672	      4.24995825	      3.66874137	     39.87322754	    -15.26244392	     -4.41084301	    104.68892612	     44.24056696	      0.00000000	      0.00000000	     -7.60094622	     -7.90918299	     11.01329227	     25.84738370	     44.28979786	      0.00000000	      0.00000000
